<mxfile host="app.diagrams.net" modified="2020-08-24T15:20:29.740Z" agent="5.0 (Windows NT 10.0; Win64; x64) AppleWebKit/537.36 (KHTML, like Gecko) Chrome/84.0.4147.135 Safari/537.36" etag="Fm6qigp4dUXBBAJ24n68" version="13.6.4" type="github" pages="5">
  <diagram id="wfZtZg7DjSCXl58f8mZb" name="C4">
    <mxGraphModel dx="1021" dy="509" grid="1" gridSize="10" guides="1" tooltips="1" connect="1" arrows="1" fold="1" page="1" pageScale="1" pageWidth="850" pageHeight="1100" math="0" shadow="0">
      <root>
        <mxCell id="0" />
        <mxCell id="1" parent="0" />
        <mxCell id="VeJ_vvRxgmn2GCeogfNA-1" value="Building" style="rounded=1;whiteSpace=wrap;html=1;strokeColor=#2D7600;fillColor=#60A917;" parent="1" vertex="1">
          <mxGeometry x="225" y="77" width="70" height="30" as="geometry" />
        </mxCell>
        <mxCell id="VeJ_vvRxgmn2GCeogfNA-2" value="Room" style="rounded=1;whiteSpace=wrap;html=1;strokeColor=#2D7600;fillColor=#60A917;" parent="1" vertex="1">
          <mxGeometry x="285" y="121" width="70" height="30" as="geometry" />
        </mxCell>
        <mxCell id="VeJ_vvRxgmn2GCeogfNA-3" value="" style="edgeStyle=orthogonalEdgeStyle;fontSize=12;html=1;endArrow=ERoneToMany;exitX=0.5;exitY=1;exitDx=0;exitDy=0;entryX=0;entryY=0.5;entryDx=0;entryDy=0;" parent="1" source="VeJ_vvRxgmn2GCeogfNA-1" target="VeJ_vvRxgmn2GCeogfNA-2" edge="1">
          <mxGeometry width="100" height="100" relative="1" as="geometry">
            <mxPoint x="485" y="357" as="sourcePoint" />
            <mxPoint x="585" y="257" as="targetPoint" />
          </mxGeometry>
        </mxCell>
        <mxCell id="VeJ_vvRxgmn2GCeogfNA-4" value="Row" style="rounded=1;whiteSpace=wrap;html=1;strokeColor=#2D7600;fillColor=#60A917;" parent="1" vertex="1">
          <mxGeometry x="335" y="166" width="70" height="30" as="geometry" />
        </mxCell>
        <mxCell id="VeJ_vvRxgmn2GCeogfNA-5" value="" style="edgeStyle=orthogonalEdgeStyle;fontSize=12;html=1;endArrow=ERoneToMany;exitX=0.386;exitY=1.033;exitDx=0;exitDy=0;entryX=0;entryY=0.5;entryDx=0;entryDy=0;exitPerimeter=0;" parent="1" source="VeJ_vvRxgmn2GCeogfNA-2" target="VeJ_vvRxgmn2GCeogfNA-4" edge="1">
          <mxGeometry width="100" height="100" relative="1" as="geometry">
            <mxPoint x="260" y="177" as="sourcePoint" />
            <mxPoint x="285" y="206" as="targetPoint" />
          </mxGeometry>
        </mxCell>
        <mxCell id="VeJ_vvRxgmn2GCeogfNA-6" value="Rack" style="rounded=1;whiteSpace=wrap;html=1;strokeColor=#006EAF;fillColor=#3399FF;" parent="1" vertex="1">
          <mxGeometry x="390" y="213" width="70" height="30" as="geometry" />
        </mxCell>
        <mxCell id="VeJ_vvRxgmn2GCeogfNA-7" value="" style="edgeStyle=orthogonalEdgeStyle;fontSize=12;html=1;endArrow=ERoneToMany;entryX=0;entryY=0.5;entryDx=0;entryDy=0;" parent="1" source="VeJ_vvRxgmn2GCeogfNA-4" target="VeJ_vvRxgmn2GCeogfNA-6" edge="1">
          <mxGeometry width="100" height="100" relative="1" as="geometry">
            <mxPoint x="375" y="197" as="sourcePoint" />
            <mxPoint x="345" y="191" as="targetPoint" />
          </mxGeometry>
        </mxCell>
        <mxCell id="VeJ_vvRxgmn2GCeogfNA-8" value="Shelf (Rack)" style="rounded=1;whiteSpace=wrap;html=1;strokeColor=#0e8088;fillColor=#3399FF;" parent="1" vertex="1">
          <mxGeometry x="445" y="262" width="70" height="30" as="geometry" />
        </mxCell>
        <mxCell id="VeJ_vvRxgmn2GCeogfNA-9" value="" style="edgeStyle=orthogonalEdgeStyle;fontSize=12;html=1;endArrow=ERoneToMany;entryX=0;entryY=0.5;entryDx=0;entryDy=0;exitX=0.5;exitY=1;exitDx=0;exitDy=0;" parent="1" source="VeJ_vvRxgmn2GCeogfNA-6" target="VeJ_vvRxgmn2GCeogfNA-8" edge="1">
          <mxGeometry width="100" height="100" relative="1" as="geometry">
            <mxPoint x="380" y="206" as="sourcePoint" />
            <mxPoint x="400" y="238" as="targetPoint" />
          </mxGeometry>
        </mxCell>
        <mxCell id="VeJ_vvRxgmn2GCeogfNA-10" value="Shelf (Slot)" style="rounded=1;whiteSpace=wrap;html=1;strokeColor=#0e8088;fillColor=#3399FF;" parent="1" vertex="1">
          <mxGeometry x="499" y="307" width="70" height="30" as="geometry" />
        </mxCell>
        <mxCell id="VeJ_vvRxgmn2GCeogfNA-11" value="" style="edgeStyle=orthogonalEdgeStyle;fontSize=12;html=1;endArrow=ERoneToMany;exitX=0.414;exitY=1.033;exitDx=0;exitDy=0;exitPerimeter=0;entryX=0;entryY=0.5;entryDx=0;entryDy=0;" parent="1" source="VeJ_vvRxgmn2GCeogfNA-8" target="VeJ_vvRxgmn2GCeogfNA-10" edge="1">
          <mxGeometry width="100" height="100" relative="1" as="geometry">
            <mxPoint x="435" y="253" as="sourcePoint" />
            <mxPoint x="435" y="357" as="targetPoint" />
          </mxGeometry>
        </mxCell>
        <mxCell id="VeJ_vvRxgmn2GCeogfNA-14" value="Card" style="rounded=1;whiteSpace=wrap;html=1;fillColor=#3399FF;strokeColor=#000066;" parent="1" vertex="1">
          <mxGeometry x="620" y="388.5" width="70" height="30" as="geometry" />
        </mxCell>
        <mxCell id="VeJ_vvRxgmn2GCeogfNA-15" value="" style="edgeStyle=orthogonalEdgeStyle;fontSize=12;html=1;endArrow=ERoneToMany;exitX=0.5;exitY=1;exitDx=0;exitDy=0;entryX=0;entryY=0.75;entryDx=0;entryDy=0;" parent="1" source="VeJ_vvRxgmn2GCeogfNA-10" target="r3TLd9B_nV1U0-KHQXG3-6" edge="1">
          <mxGeometry width="100" height="100" relative="1" as="geometry">
            <mxPoint x="483.98" y="302.99" as="sourcePoint" />
            <mxPoint x="495" y="397" as="targetPoint" />
          </mxGeometry>
        </mxCell>
        <mxCell id="VeJ_vvRxgmn2GCeogfNA-16" value="Port" style="rounded=1;whiteSpace=wrap;html=1;fillColor=#66B2FF;strokeColor=#000066;" parent="1" vertex="1">
          <mxGeometry x="710" y="422" width="70" height="30" as="geometry" />
        </mxCell>
        <mxCell id="VeJ_vvRxgmn2GCeogfNA-17" value="" style="edgeStyle=orthogonalEdgeStyle;fontSize=12;html=1;endArrow=ERoneToMany;entryX=0;entryY=0.25;entryDx=0;entryDy=0;exitX=0.5;exitY=1;exitDx=0;exitDy=0;" parent="1" source="VeJ_vvRxgmn2GCeogfNA-14" target="VeJ_vvRxgmn2GCeogfNA-16" edge="1">
          <mxGeometry width="100" height="100" relative="1" as="geometry">
            <mxPoint x="595" y="387" as="sourcePoint" />
            <mxPoint x="568" y="379" as="targetPoint" />
          </mxGeometry>
        </mxCell>
        <mxCell id="VeJ_vvRxgmn2GCeogfNA-19" style="edgeStyle=elbowEdgeStyle;rounded=0;orthogonalLoop=1;jettySize=auto;elbow=vertical;html=1;entryX=0.25;entryY=0;entryDx=0;entryDy=0;" parent="1" edge="1">
          <mxGeometry relative="1" as="geometry">
            <mxPoint x="592.5" y="262" as="sourcePoint" />
            <mxPoint x="592.5" y="262" as="targetPoint" />
          </mxGeometry>
        </mxCell>
        <mxCell id="VeJ_vvRxgmn2GCeogfNA-20" value="Device" style="rounded=1;whiteSpace=wrap;html=1;strokeColor=#006EAF;fillColor=#3399FF;" parent="1" vertex="1">
          <mxGeometry x="499" y="392" width="70" height="30" as="geometry" />
        </mxCell>
        <mxCell id="VeJ_vvRxgmn2GCeogfNA-21" value="" style="edgeStyle=orthogonalEdgeStyle;fontSize=12;html=1;endArrow=ERoneToMany;exitX=0.25;exitY=1;exitDx=0;exitDy=0;entryX=0;entryY=0.25;entryDx=0;entryDy=0;" parent="1" source="VeJ_vvRxgmn2GCeogfNA-8" target="VeJ_vvRxgmn2GCeogfNA-20" edge="1">
          <mxGeometry width="100" height="100" relative="1" as="geometry">
            <mxPoint x="483.98" y="302.99" as="sourcePoint" />
            <mxPoint x="509" y="332" as="targetPoint" />
          </mxGeometry>
        </mxCell>
        <mxCell id="VeJ_vvRxgmn2GCeogfNA-24" value="" style="edgeStyle=orthogonalEdgeStyle;fontSize=12;html=1;endArrow=ERoneToMany;exitX=0.371;exitY=0.967;exitDx=0;exitDy=0;entryX=0;entryY=0.5;entryDx=0;entryDy=0;strokeColor=#FF0000;exitPerimeter=0;" parent="1" source="VeJ_vvRxgmn2GCeogfNA-1" target="VeJ_vvRxgmn2GCeogfNA-20" edge="1">
          <mxGeometry width="100" height="100" relative="1" as="geometry">
            <mxPoint x="472.5" y="302" as="sourcePoint" />
            <mxPoint x="509" y="409.5" as="targetPoint" />
          </mxGeometry>
        </mxCell>
        <mxCell id="VeJ_vvRxgmn2GCeogfNA-25" value="Geopoint" style="rounded=1;whiteSpace=wrap;html=1;strokeColor=#2D7600;fillColor=#60A917;" parent="1" vertex="1">
          <mxGeometry x="285" y="22" width="70" height="30" as="geometry" />
        </mxCell>
        <mxCell id="VeJ_vvRxgmn2GCeogfNA-26" value="Address" style="rounded=1;whiteSpace=wrap;html=1;fillColor=#60A917;" parent="1" vertex="1">
          <mxGeometry x="378" y="46" width="70" height="30" as="geometry" />
        </mxCell>
        <mxCell id="VeJ_vvRxgmn2GCeogfNA-27" value="" style="edgeStyle=orthogonalEdgeStyle;fontSize=12;html=1;endArrow=ERmandOne;startArrow=ERmandOne;entryX=0;entryY=0.5;entryDx=0;entryDy=0;exitX=0.5;exitY=0;exitDx=0;exitDy=0;" parent="1" source="VeJ_vvRxgmn2GCeogfNA-1" target="VeJ_vvRxgmn2GCeogfNA-25" edge="1">
          <mxGeometry width="100" height="100" relative="1" as="geometry">
            <mxPoint x="471" y="172" as="sourcePoint" />
            <mxPoint x="571" y="72" as="targetPoint" />
          </mxGeometry>
        </mxCell>
        <mxCell id="VeJ_vvRxgmn2GCeogfNA-28" value="" style="edgeStyle=orthogonalEdgeStyle;fontSize=12;html=1;endArrow=ERmandOne;startArrow=ERmandOne;entryX=0;entryY=0.5;entryDx=0;entryDy=0;exitX=1;exitY=0.25;exitDx=0;exitDy=0;" parent="1" source="VeJ_vvRxgmn2GCeogfNA-1" target="VeJ_vvRxgmn2GCeogfNA-26" edge="1">
          <mxGeometry width="100" height="100" relative="1" as="geometry">
            <mxPoint x="301" y="87" as="sourcePoint" />
            <mxPoint x="295" y="47" as="targetPoint" />
          </mxGeometry>
        </mxCell>
        <mxCell id="VeJ_vvRxgmn2GCeogfNA-29" value="Station" style="rounded=1;whiteSpace=wrap;html=1;fillColor=#B3B3B3;" parent="1" vertex="1">
          <mxGeometry x="141" y="121" width="70" height="30" as="geometry" />
        </mxCell>
        <mxCell id="VeJ_vvRxgmn2GCeogfNA-30" value="" style="edgeStyle=orthogonalEdgeStyle;fontSize=12;html=1;endArrow=ERoneToMany;exitX=0;exitY=0.5;exitDx=0;exitDy=0;entryX=0.5;entryY=0;entryDx=0;entryDy=0;" parent="1" source="VeJ_vvRxgmn2GCeogfNA-1" target="VeJ_vvRxgmn2GCeogfNA-29" edge="1">
          <mxGeometry width="100" height="100" relative="1" as="geometry">
            <mxPoint x="270" y="117" as="sourcePoint" />
            <mxPoint x="295" y="146" as="targetPoint" />
          </mxGeometry>
        </mxCell>
        <mxCell id="VeJ_vvRxgmn2GCeogfNA-31" value="Town" style="rounded=1;whiteSpace=wrap;html=1;fillColor=#60A917;" parent="1" vertex="1">
          <mxGeometry x="499" y="46" width="70" height="30" as="geometry" />
        </mxCell>
        <mxCell id="VeJ_vvRxgmn2GCeogfNA-32" value="" style="edgeStyle=orthogonalEdgeStyle;fontSize=12;html=1;endArrow=ERoneToMany;exitX=0;exitY=0.5;exitDx=0;exitDy=0;" parent="1" source="VeJ_vvRxgmn2GCeogfNA-31" target="VeJ_vvRxgmn2GCeogfNA-26" edge="1">
          <mxGeometry width="100" height="100" relative="1" as="geometry">
            <mxPoint x="491" y="62" as="sourcePoint" />
            <mxPoint x="451" y="62" as="targetPoint" />
          </mxGeometry>
        </mxCell>
        <mxCell id="VeJ_vvRxgmn2GCeogfNA-33" value="Location Objects" style="rounded=1;whiteSpace=wrap;html=1;strokeColor=#2D7600;fillColor=#60A917;" parent="1" vertex="1">
          <mxGeometry x="720" y="17" width="70" height="30" as="geometry" />
        </mxCell>
        <mxCell id="VeJ_vvRxgmn2GCeogfNA-34" value="Physical Objects" style="rounded=1;whiteSpace=wrap;html=1;fillColor=#66B2FF;strokeColor=#000066;" parent="1" vertex="1">
          <mxGeometry x="721" y="60" width="70" height="30" as="geometry" />
        </mxCell>
        <mxCell id="VeJ_vvRxgmn2GCeogfNA-36" value="" style="edgeStyle=orthogonalEdgeStyle;fontSize=12;html=1;endArrow=ERmandOne;startArrow=ERmandOne;strokeColor=#000066;" parent="1" source="VeJ_vvRxgmn2GCeogfNA-6" edge="1">
          <mxGeometry width="100" height="100" relative="1" as="geometry">
            <mxPoint x="471" y="322" as="sourcePoint" />
            <mxPoint x="750" y="420" as="targetPoint" />
          </mxGeometry>
        </mxCell>
        <mxCell id="VeJ_vvRxgmn2GCeogfNA-38" value="" style="edgeStyle=orthogonalEdgeStyle;fontSize=12;html=1;endArrow=ERoneToMany;exitX=0.25;exitY=1;exitDx=0;exitDy=0;entryX=0.5;entryY=1;entryDx=0;entryDy=0;" parent="1" source="VeJ_vvRxgmn2GCeogfNA-29" target="VeJ_vvRxgmn2GCeogfNA-16" edge="1">
          <mxGeometry width="100" height="100" relative="1" as="geometry">
            <mxPoint x="235" y="102" as="sourcePoint" />
            <mxPoint x="106" y="196" as="targetPoint" />
          </mxGeometry>
        </mxCell>
        <mxCell id="VeJ_vvRxgmn2GCeogfNA-42" value="" style="edgeStyle=orthogonalEdgeStyle;fontSize=12;html=1;endArrow=ERmandOne;startArrow=ERmandOne;shadow=0;entryX=0;entryY=0.5;entryDx=0;entryDy=0;exitX=1;exitY=0.5;exitDx=0;exitDy=0;" parent="1" edge="1" target="VeJ_vvRxgmn2GCeogfNA-43" source="r3TLd9B_nV1U0-KHQXG3-16">
          <mxGeometry width="100" height="100" relative="1" as="geometry">
            <mxPoint x="940" y="244" as="sourcePoint" />
            <mxPoint x="963" y="188" as="targetPoint" />
            <Array as="points">
              <mxPoint x="940" y="437" />
              <mxPoint x="940" y="389" />
            </Array>
          </mxGeometry>
        </mxCell>
        <mxCell id="k51QmScitpRsdkguj8a_-5" value="" style="edgeStyle=orthogonalEdgeStyle;fontSize=12;html=1;endArrow=ERoneToMany;exitX=0.5;exitY=1;exitDx=0;exitDy=0;entryX=0;entryY=0.75;entryDx=0;entryDy=0;" edge="1" parent="1" source="VeJ_vvRxgmn2GCeogfNA-29" target="VeJ_vvRxgmn2GCeogfNA-20">
          <mxGeometry width="100" height="100" relative="1" as="geometry">
            <mxPoint x="151" y="146" as="sourcePoint" />
            <mxPoint x="115" y="172" as="targetPoint" />
          </mxGeometry>
        </mxCell>
        <mxCell id="5hKuuqLqU2WsOUD4vB64-1" value="Organization" style="rounded=1;whiteSpace=wrap;html=1;fillColor=#B3B3B3;" vertex="1" parent="1">
          <mxGeometry x="88" y="16" width="70" height="30" as="geometry" />
        </mxCell>
        <mxCell id="r3TLd9B_nV1U0-KHQXG3-1" value="Operator" style="rounded=1;whiteSpace=wrap;html=1;fillColor=#B3B3B3;" vertex="1" parent="1">
          <mxGeometry x="10" y="17" width="70" height="30" as="geometry" />
        </mxCell>
        <mxCell id="r3TLd9B_nV1U0-KHQXG3-3" value="" style="edgeStyle=orthogonalEdgeStyle;fontSize=12;html=1;endArrow=ERoneToMany;entryX=0;entryY=0.25;entryDx=0;entryDy=0;" edge="1" parent="1" source="5hKuuqLqU2WsOUD4vB64-1" target="VeJ_vvRxgmn2GCeogfNA-29">
          <mxGeometry width="100" height="100" relative="1" as="geometry">
            <mxPoint x="235" y="102" as="sourcePoint" />
            <mxPoint x="186" y="131" as="targetPoint" />
          </mxGeometry>
        </mxCell>
        <mxCell id="r3TLd9B_nV1U0-KHQXG3-4" value="" style="edgeStyle=orthogonalEdgeStyle;fontSize=12;html=1;endArrow=ERoneToMany;entryX=0;entryY=0.75;entryDx=0;entryDy=0;exitX=0.5;exitY=1;exitDx=0;exitDy=0;" edge="1" parent="1" source="r3TLd9B_nV1U0-KHQXG3-1" target="VeJ_vvRxgmn2GCeogfNA-29">
          <mxGeometry width="100" height="100" relative="1" as="geometry">
            <mxPoint x="133" y="56" as="sourcePoint" />
            <mxPoint x="151" y="138.5" as="targetPoint" />
          </mxGeometry>
        </mxCell>
        <mxCell id="r3TLd9B_nV1U0-KHQXG3-6" value="Slot" style="rounded=1;whiteSpace=wrap;html=1;strokeColor=#0e8088;fillColor=#3399FF;" vertex="1" parent="1">
          <mxGeometry x="568" y="340" width="70" height="30" as="geometry" />
        </mxCell>
        <mxCell id="r3TLd9B_nV1U0-KHQXG3-7" value="" style="edgeStyle=orthogonalEdgeStyle;fontSize=12;html=1;endArrow=ERoneToMany;entryX=0;entryY=0.5;entryDx=0;entryDy=0;" edge="1" parent="1" source="r3TLd9B_nV1U0-KHQXG3-6" target="VeJ_vvRxgmn2GCeogfNA-14">
          <mxGeometry width="100" height="100" relative="1" as="geometry">
            <mxPoint x="544" y="347" as="sourcePoint" />
            <mxPoint x="590" y="410" as="targetPoint" />
          </mxGeometry>
        </mxCell>
        <mxCell id="r3TLd9B_nV1U0-KHQXG3-8" value="" style="edgeStyle=orthogonalEdgeStyle;fontSize=12;html=1;endArrow=ERoneToMany;exitX=0.5;exitY=1;exitDx=0;exitDy=0;entryX=0;entryY=0.75;entryDx=0;entryDy=0;" edge="1" parent="1" source="VeJ_vvRxgmn2GCeogfNA-20" target="VeJ_vvRxgmn2GCeogfNA-16">
          <mxGeometry width="100" height="100" relative="1" as="geometry">
            <mxPoint x="472.5" y="302" as="sourcePoint" />
            <mxPoint x="509" y="409.5" as="targetPoint" />
          </mxGeometry>
        </mxCell>
        <mxCell id="r3TLd9B_nV1U0-KHQXG3-9" value="" style="edgeStyle=orthogonalEdgeStyle;fontSize=12;html=1;endArrow=ERoneToMany;" edge="1" parent="1">
          <mxGeometry width="100" height="100" relative="1" as="geometry">
            <mxPoint x="670" y="390" as="sourcePoint" />
            <mxPoint x="640" y="350" as="targetPoint" />
            <Array as="points">
              <mxPoint x="670" y="350" />
            </Array>
          </mxGeometry>
        </mxCell>
        <mxCell id="r3TLd9B_nV1U0-KHQXG3-16" value="Link" style="rounded=1;whiteSpace=wrap;html=1;fillColor=#66B2FF;strokeColor=#000066;" vertex="1" parent="1">
          <mxGeometry x="831" y="422" width="70" height="30" as="geometry" />
        </mxCell>
        <mxCell id="r3TLd9B_nV1U0-KHQXG3-18" value="" style="edgeStyle=orthogonalEdgeStyle;fontSize=12;html=1;endArrow=ERoneToMany;entryX=0;entryY=0.5;entryDx=0;entryDy=0;exitX=1;exitY=0.5;exitDx=0;exitDy=0;" edge="1" parent="1" source="VeJ_vvRxgmn2GCeogfNA-16" target="r3TLd9B_nV1U0-KHQXG3-16">
          <mxGeometry width="100" height="100" relative="1" as="geometry">
            <mxPoint x="810" y="400" as="sourcePoint" />
            <mxPoint x="720" y="439.5" as="targetPoint" />
          </mxGeometry>
        </mxCell>
        <mxCell id="r3TLd9B_nV1U0-KHQXG3-19" value="Circuit" style="rounded=1;whiteSpace=wrap;html=1;fillColor=#B3B3B3;" vertex="1" parent="1">
          <mxGeometry x="831" y="370" width="70" height="30" as="geometry" />
        </mxCell>
        <mxCell id="r3TLd9B_nV1U0-KHQXG3-20" value="" style="edgeStyle=orthogonalEdgeStyle;fontSize=12;html=1;endArrow=ERoneToMany;entryX=0;entryY=0.5;entryDx=0;entryDy=0;exitX=1;exitY=0.25;exitDx=0;exitDy=0;" edge="1" parent="1" source="VeJ_vvRxgmn2GCeogfNA-16" target="r3TLd9B_nV1U0-KHQXG3-19">
          <mxGeometry width="100" height="100" relative="1" as="geometry">
            <mxPoint x="790" y="447" as="sourcePoint" />
            <mxPoint x="840" y="447" as="targetPoint" />
          </mxGeometry>
        </mxCell>
        <mxCell id="r3TLd9B_nV1U0-KHQXG3-21" value="" style="edgeStyle=orthogonalEdgeStyle;fontSize=12;html=1;endArrow=ERoneToMany;entryX=0.5;entryY=1;entryDx=0;entryDy=0;exitX=0.5;exitY=0;exitDx=0;exitDy=0;" edge="1" parent="1" source="r3TLd9B_nV1U0-KHQXG3-16" target="r3TLd9B_nV1U0-KHQXG3-19">
          <mxGeometry width="100" height="100" relative="1" as="geometry">
            <mxPoint x="790" y="447" as="sourcePoint" />
            <mxPoint x="841" y="447" as="targetPoint" />
          </mxGeometry>
        </mxCell>
        <mxCell id="VeJ_vvRxgmn2GCeogfNA-43" value="DFS/BCS" style="swimlane;childLayout=stackLayout;horizontal=1;startSize=27;horizontalStack=0;rounded=1;fontSize=14;fontStyle=0;strokeWidth=2;resizeParent=0;resizeLast=1;shadow=0;dashed=0;align=center;fillColor=#B3B3B3;" parent="1" vertex="1">
          <mxGeometry x="950" y="355" width="120" height="67" as="geometry" />
        </mxCell>
        <mxCell id="VeJ_vvRxgmn2GCeogfNA-44" value="+DFC1/BCC1&#xa;+DFC2/BCC2&#xa;" style="align=left;strokeColor=none;fillColor=none;spacingLeft=4;fontSize=12;verticalAlign=top;resizable=0;rotatable=0;part=1;" parent="VeJ_vvRxgmn2GCeogfNA-43" vertex="1">
          <mxGeometry y="27" width="120" height="40" as="geometry" />
        </mxCell>
        <mxCell id="Z8mqQvyeFo6W0HbY5gXA-1" value="NIP" style="rounded=1;whiteSpace=wrap;html=1;fillColor=#B3B3B3;" vertex="1" parent="1">
          <mxGeometry x="791" y="490" width="70" height="30" as="geometry" />
        </mxCell>
        <mxCell id="Z8mqQvyeFo6W0HbY5gXA-2" value="" style="edgeStyle=orthogonalEdgeStyle;fontSize=12;html=1;endArrow=ERoneToMany;entryX=0;entryY=0.5;entryDx=0;entryDy=0;exitX=0.75;exitY=1;exitDx=0;exitDy=0;strokeColor=#FF0000;" edge="1" parent="1" source="VeJ_vvRxgmn2GCeogfNA-16" target="Z8mqQvyeFo6W0HbY5gXA-1">
          <mxGeometry width="100" height="100" relative="1" as="geometry">
            <mxPoint x="730.5" y="514.5" as="sourcePoint" />
            <mxPoint x="781.5" y="470" as="targetPoint" />
          </mxGeometry>
        </mxCell>
        <mxCell id="Z8mqQvyeFo6W0HbY5gXA-3" value="Rack" style="rounded=1;whiteSpace=wrap;html=1;fillColor=#66B2FF;strokeColor=#000066;" vertex="1" parent="1">
          <mxGeometry x="390" y="213" width="70" height="30" as="geometry" />
        </mxCell>
        <mxCell id="Z8mqQvyeFo6W0HbY5gXA-4" value="Shelf (Rack)" style="rounded=1;whiteSpace=wrap;html=1;fillColor=#66B2FF;strokeColor=#000066;" vertex="1" parent="1">
          <mxGeometry x="445" y="262" width="70" height="30" as="geometry" />
        </mxCell>
        <mxCell id="Z8mqQvyeFo6W0HbY5gXA-5" value="Shelf (Slot)" style="rounded=1;whiteSpace=wrap;html=1;fillColor=#66B2FF;strokeColor=#000066;" vertex="1" parent="1">
          <mxGeometry x="499" y="307" width="70" height="30" as="geometry" />
        </mxCell>
        <mxCell id="Z8mqQvyeFo6W0HbY5gXA-6" value="Device" style="rounded=1;whiteSpace=wrap;html=1;fillColor=#66B2FF;strokeColor=#000066;" vertex="1" parent="1">
          <mxGeometry x="499" y="392" width="70" height="30" as="geometry" />
        </mxCell>
        <mxCell id="Z8mqQvyeFo6W0HbY5gXA-7" value="Slot" style="rounded=1;whiteSpace=wrap;html=1;fillColor=#66B2FF;strokeColor=#000066;" vertex="1" parent="1">
          <mxGeometry x="568" y="340" width="70" height="30" as="geometry" />
        </mxCell>
        <mxCell id="Z8mqQvyeFo6W0HbY5gXA-8" value="Logical&lt;br&gt;Objects" style="rounded=1;whiteSpace=wrap;html=1;fillColor=#B3B3B3;" vertex="1" parent="1">
          <mxGeometry x="721" y="107" width="70" height="30" as="geometry" />
        </mxCell>
        <mxCell id="jrsB2Z_EFA98pRJ4mjDv-1" value="&lt;span&gt;Have only 1 &quot;Unconnected Link port&quot;&lt;/span&gt;" style="whiteSpace=wrap;html=1;shape=mxgraph.basic.roundRectCallout;dx=30;dy=15;size=5;boundedLbl=1;rounded=1;strokeColor=#000066;fillColor=#FFFF00;fontColor=#000000;" vertex="1" parent="1">
          <mxGeometry x="553" y="166" width="100" height="60" as="geometry" />
        </mxCell>
        <mxCell id="jrsB2Z_EFA98pRJ4mjDv-2" value="&lt;span style=&quot;&quot;&gt;Not a valid relation&lt;/span&gt;" style="whiteSpace=wrap;html=1;shape=mxgraph.basic.roundRectCallout;dx=30;dy=15;size=5;boundedLbl=1;rounded=1;strokeColor=#000066;fillColor=#FFFF00;" vertex="1" parent="1">
          <mxGeometry x="255" y="232" width="100" height="60" as="geometry" />
        </mxCell>
        <mxCell id="jrsB2Z_EFA98pRJ4mjDv-4" value="For child cards" style="whiteSpace=wrap;html=1;shape=mxgraph.basic.roundRectCallout;dx=30;dy=15;size=5;boundedLbl=1;rounded=1;strokeColor=#000066;fillColor=#FFFF00;fontColor=#000000;" vertex="1" parent="1">
          <mxGeometry x="653" y="292" width="100" height="60" as="geometry" />
        </mxCell>
      </root>
    </mxGraphModel>
  </diagram>
  <diagram name="OSS" id="ZQnruwc81O6tPxzL7-DK">
    <mxGraphModel dx="868" dy="482" grid="1" gridSize="10" guides="1" tooltips="1" connect="1" arrows="1" fold="1" page="1" pageScale="1" pageWidth="850" pageHeight="1100" math="0" shadow="0">
      <root>
        <mxCell id="XGxz1vyEp1LMj1HzgabG-0" />
        <mxCell id="XGxz1vyEp1LMj1HzgabG-1" parent="XGxz1vyEp1LMj1HzgabG-0" />
        <mxCell id="XGxz1vyEp1LMj1HzgabG-2" value="Station" style="rounded=1;whiteSpace=wrap;html=1;fillColor=#60a917;strokeColor=#2D7600;fontColor=#ffffff;" parent="XGxz1vyEp1LMj1HzgabG-1" vertex="1">
          <mxGeometry x="130" y="145" width="70" height="30" as="geometry" />
        </mxCell>
        <mxCell id="XGxz1vyEp1LMj1HzgabG-3" value="Node" style="rounded=1;whiteSpace=wrap;html=1;fillColor=#1ba1e2;strokeColor=#006EAF;fontColor=#ffffff;" parent="XGxz1vyEp1LMj1HzgabG-1" vertex="1">
          <mxGeometry x="190" y="189" width="70" height="30" as="geometry" />
        </mxCell>
        <mxCell id="XGxz1vyEp1LMj1HzgabG-4" value="" style="edgeStyle=orthogonalEdgeStyle;fontSize=12;html=1;endArrow=ERoneToMany;exitX=0.5;exitY=1;exitDx=0;exitDy=0;entryX=0;entryY=0.5;entryDx=0;entryDy=0;" parent="XGxz1vyEp1LMj1HzgabG-1" source="XGxz1vyEp1LMj1HzgabG-2" target="XGxz1vyEp1LMj1HzgabG-3" edge="1">
          <mxGeometry width="100" height="100" relative="1" as="geometry">
            <mxPoint x="390" y="425" as="sourcePoint" />
            <mxPoint x="490" y="325" as="targetPoint" />
          </mxGeometry>
        </mxCell>
        <mxCell id="XGxz1vyEp1LMj1HzgabG-5" value="Slotshelf" style="rounded=1;whiteSpace=wrap;html=1;" parent="XGxz1vyEp1LMj1HzgabG-1" vertex="1">
          <mxGeometry x="240" y="234" width="70" height="30" as="geometry" />
        </mxCell>
        <mxCell id="XGxz1vyEp1LMj1HzgabG-6" value="" style="edgeStyle=orthogonalEdgeStyle;fontSize=12;html=1;endArrow=ERoneToMany;exitX=0.386;exitY=1.033;exitDx=0;exitDy=0;entryX=0;entryY=0.5;entryDx=0;entryDy=0;exitPerimeter=0;" parent="XGxz1vyEp1LMj1HzgabG-1" source="XGxz1vyEp1LMj1HzgabG-3" target="XGxz1vyEp1LMj1HzgabG-5" edge="1">
          <mxGeometry width="100" height="100" relative="1" as="geometry">
            <mxPoint x="165" y="245" as="sourcePoint" />
            <mxPoint x="190" y="274" as="targetPoint" />
          </mxGeometry>
        </mxCell>
        <mxCell id="XGxz1vyEp1LMj1HzgabG-7" value="Card" style="rounded=1;whiteSpace=wrap;html=1;" parent="XGxz1vyEp1LMj1HzgabG-1" vertex="1">
          <mxGeometry x="295" y="281" width="70" height="30" as="geometry" />
        </mxCell>
        <mxCell id="XGxz1vyEp1LMj1HzgabG-8" value="" style="edgeStyle=orthogonalEdgeStyle;fontSize=12;html=1;endArrow=ERoneToMany;entryX=0;entryY=0.5;entryDx=0;entryDy=0;" parent="XGxz1vyEp1LMj1HzgabG-1" source="XGxz1vyEp1LMj1HzgabG-5" target="XGxz1vyEp1LMj1HzgabG-7" edge="1">
          <mxGeometry width="100" height="100" relative="1" as="geometry">
            <mxPoint x="280" y="265" as="sourcePoint" />
            <mxPoint x="250" y="259" as="targetPoint" />
          </mxGeometry>
        </mxCell>
        <mxCell id="XGxz1vyEp1LMj1HzgabG-9" value="Port" style="rounded=1;whiteSpace=wrap;html=1;" parent="XGxz1vyEp1LMj1HzgabG-1" vertex="1">
          <mxGeometry x="350" y="330" width="70" height="30" as="geometry" />
        </mxCell>
        <mxCell id="XGxz1vyEp1LMj1HzgabG-10" value="" style="edgeStyle=orthogonalEdgeStyle;fontSize=12;html=1;endArrow=ERoneToMany;entryX=0;entryY=0.5;entryDx=0;entryDy=0;exitX=0.5;exitY=1;exitDx=0;exitDy=0;" parent="XGxz1vyEp1LMj1HzgabG-1" source="XGxz1vyEp1LMj1HzgabG-7" target="XGxz1vyEp1LMj1HzgabG-9" edge="1">
          <mxGeometry width="100" height="100" relative="1" as="geometry">
            <mxPoint x="285" y="274" as="sourcePoint" />
            <mxPoint x="305" y="306" as="targetPoint" />
          </mxGeometry>
        </mxCell>
        <mxCell id="XGxz1vyEp1LMj1HzgabG-20" style="edgeStyle=elbowEdgeStyle;rounded=0;orthogonalLoop=1;jettySize=auto;elbow=vertical;html=1;entryX=0.25;entryY=0;entryDx=0;entryDy=0;" parent="XGxz1vyEp1LMj1HzgabG-1" edge="1">
          <mxGeometry relative="1" as="geometry">
            <mxPoint x="497.5" y="330" as="sourcePoint" />
            <mxPoint x="497.5" y="330" as="targetPoint" />
          </mxGeometry>
        </mxCell>
        <mxCell id="XGxz1vyEp1LMj1HzgabG-34" value="Location Objects" style="rounded=1;whiteSpace=wrap;html=1;fillColor=#60a917;strokeColor=#2D7600;fontColor=#ffffff;" parent="XGxz1vyEp1LMj1HzgabG-1" vertex="1">
          <mxGeometry x="536" y="100" width="70" height="30" as="geometry" />
        </mxCell>
        <mxCell id="XGxz1vyEp1LMj1HzgabG-35" value="Node Objects" style="rounded=1;whiteSpace=wrap;html=1;fillColor=#1ba1e2;strokeColor=#006EAF;fontColor=#ffffff;" parent="XGxz1vyEp1LMj1HzgabG-1" vertex="1">
          <mxGeometry x="536" y="159" width="70" height="30" as="geometry" />
        </mxCell>
        <mxCell id="XGxz1vyEp1LMj1HzgabG-36" value="Equipment Holder" style="rounded=1;whiteSpace=wrap;html=1;fillColor=#1ba1e2;strokeColor=#006EAF;fontColor=#ffffff;" parent="XGxz1vyEp1LMj1HzgabG-1" vertex="1">
          <mxGeometry x="276" y="145" width="70" height="30" as="geometry" />
        </mxCell>
        <mxCell id="XGxz1vyEp1LMj1HzgabG-37" value="No Location" style="rounded=1;whiteSpace=wrap;html=1;fillColor=#60a917;strokeColor=#2D7600;fontColor=#ffffff;" parent="XGxz1vyEp1LMj1HzgabG-1" vertex="1">
          <mxGeometry x="350" y="105" width="70" height="30" as="geometry" />
        </mxCell>
        <mxCell id="XGxz1vyEp1LMj1HzgabG-39" value="" style="edgeStyle=orthogonalEdgeStyle;fontSize=12;html=1;endArrow=ERmandOne;startArrow=ERmandOne;exitX=0.5;exitY=0;exitDx=0;exitDy=0;entryX=0;entryY=0.5;entryDx=0;entryDy=0;" parent="XGxz1vyEp1LMj1HzgabG-1" source="XGxz1vyEp1LMj1HzgabG-3" target="XGxz1vyEp1LMj1HzgabG-36" edge="1">
          <mxGeometry width="100" height="100" relative="1" as="geometry">
            <mxPoint x="176" y="260" as="sourcePoint" />
            <mxPoint x="276" y="160" as="targetPoint" />
          </mxGeometry>
        </mxCell>
        <mxCell id="XGxz1vyEp1LMj1HzgabG-40" value="" style="edgeStyle=orthogonalEdgeStyle;fontSize=12;html=1;endArrow=ERmandOne;startArrow=ERmandOne;exitX=0.75;exitY=0;exitDx=0;exitDy=0;entryX=0;entryY=0.5;entryDx=0;entryDy=0;" parent="XGxz1vyEp1LMj1HzgabG-1" source="XGxz1vyEp1LMj1HzgabG-36" target="XGxz1vyEp1LMj1HzgabG-37" edge="1">
          <mxGeometry width="100" height="100" relative="1" as="geometry">
            <mxPoint x="235" y="199" as="sourcePoint" />
            <mxPoint x="286" y="170" as="targetPoint" />
          </mxGeometry>
        </mxCell>
        <mxCell id="XGxz1vyEp1LMj1HzgabG-41" value="Port" style="rounded=1;whiteSpace=wrap;html=1;" parent="XGxz1vyEp1LMj1HzgabG-1" vertex="1">
          <mxGeometry x="295" y="380" width="70" height="30" as="geometry" />
        </mxCell>
        <mxCell id="XGxz1vyEp1LMj1HzgabG-48" value="" style="edgeStyle=orthogonalEdgeStyle;rounded=0;orthogonalLoop=1;jettySize=auto;html=1;" parent="XGxz1vyEp1LMj1HzgabG-1" source="XGxz1vyEp1LMj1HzgabG-47" target="XGxz1vyEp1LMj1HzgabG-36" edge="1">
          <mxGeometry relative="1" as="geometry" />
        </mxCell>
        <UserObject label="VAR Location" placeholders="1" name="Variable" id="XGxz1vyEp1LMj1HzgabG-47">
          <mxCell style="text;html=1;strokeColor=none;fillColor=none;align=center;verticalAlign=middle;whiteSpace=wrap;overflow=hidden;" parent="XGxz1vyEp1LMj1HzgabG-1" vertex="1">
            <mxGeometry x="386" y="150" width="80" height="20" as="geometry" />
          </mxCell>
        </UserObject>
        <mxCell id="XGxz1vyEp1LMj1HzgabG-50" value="" style="edgeStyle=orthogonalEdgeStyle;rounded=0;orthogonalLoop=1;jettySize=auto;html=1;entryX=1;entryY=0.5;entryDx=0;entryDy=0;" parent="XGxz1vyEp1LMj1HzgabG-1" source="XGxz1vyEp1LMj1HzgabG-49" target="XGxz1vyEp1LMj1HzgabG-5" edge="1">
          <mxGeometry relative="1" as="geometry" />
        </mxCell>
        <mxCell id="XGxz1vyEp1LMj1HzgabG-53" style="edgeStyle=orthogonalEdgeStyle;rounded=0;orthogonalLoop=1;jettySize=auto;html=1;entryX=1;entryY=0.25;entryDx=0;entryDy=0;exitX=0.5;exitY=0;exitDx=0;exitDy=0;" parent="XGxz1vyEp1LMj1HzgabG-1" source="XGxz1vyEp1LMj1HzgabG-49" target="XGxz1vyEp1LMj1HzgabG-3" edge="1">
          <mxGeometry relative="1" as="geometry" />
        </mxCell>
        <UserObject label="OTN Stores VAR location on Slotshelf&lt;br&gt;or Node in an attribute" placeholders="1" name="Variable" id="XGxz1vyEp1LMj1HzgabG-49">
          <mxCell style="text;html=1;strokeColor=none;fillColor=none;align=center;verticalAlign=middle;whiteSpace=wrap;overflow=hidden;" parent="XGxz1vyEp1LMj1HzgabG-1" vertex="1">
            <mxGeometry x="386" y="219" width="130" height="61" as="geometry" />
          </mxCell>
        </UserObject>
        <mxCell id="ymalUgSabGPjmfuooHwx-0" value="" style="edgeStyle=orthogonalEdgeStyle;fontSize=12;html=1;endArrow=ERoneToMany;exitX=0.25;exitY=1;exitDx=0;exitDy=0;entryX=0;entryY=0.5;entryDx=0;entryDy=0;" parent="XGxz1vyEp1LMj1HzgabG-1" source="XGxz1vyEp1LMj1HzgabG-3" target="XGxz1vyEp1LMj1HzgabG-41" edge="1">
          <mxGeometry width="100" height="100" relative="1" as="geometry">
            <mxPoint x="175" y="185" as="sourcePoint" />
            <mxPoint x="200" y="214" as="targetPoint" />
          </mxGeometry>
        </mxCell>
        <mxCell id="ymalUgSabGPjmfuooHwx-1" value="Organization" style="rounded=1;whiteSpace=wrap;html=1;" parent="XGxz1vyEp1LMj1HzgabG-1" vertex="1">
          <mxGeometry x="30" y="80" width="70" height="30" as="geometry" />
        </mxCell>
        <mxCell id="ymalUgSabGPjmfuooHwx-2" value="Uses &lt;br&gt;TS" style="edgeStyle=orthogonalEdgeStyle;fontSize=12;html=1;endArrow=ERoneToMany;exitX=0.5;exitY=1;exitDx=0;exitDy=0;entryX=0;entryY=0.5;entryDx=0;entryDy=0;" parent="XGxz1vyEp1LMj1HzgabG-1" source="ymalUgSabGPjmfuooHwx-1" target="XGxz1vyEp1LMj1HzgabG-2" edge="1">
          <mxGeometry x="-0.4783" width="100" height="100" relative="1" as="geometry">
            <mxPoint x="175" y="185" as="sourcePoint" />
            <mxPoint x="200" y="214" as="targetPoint" />
            <mxPoint as="offset" />
          </mxGeometry>
        </mxCell>
        <mxCell id="ymalUgSabGPjmfuooHwx-3" value="Operator" style="rounded=1;whiteSpace=wrap;html=1;" parent="XGxz1vyEp1LMj1HzgabG-1" vertex="1">
          <mxGeometry x="50" y="30" width="70" height="30" as="geometry" />
        </mxCell>
        <mxCell id="ymalUgSabGPjmfuooHwx-4" value="Uses &lt;br&gt;TS" style="edgeStyle=orthogonalEdgeStyle;fontSize=12;html=1;endArrow=ERoneToMany;entryX=0.143;entryY=0.033;entryDx=0;entryDy=0;entryPerimeter=0;exitX=1;exitY=0.5;exitDx=0;exitDy=0;" parent="XGxz1vyEp1LMj1HzgabG-1" source="ymalUgSabGPjmfuooHwx-3" target="XGxz1vyEp1LMj1HzgabG-2" edge="1">
          <mxGeometry x="0.0745" width="100" height="100" relative="1" as="geometry">
            <mxPoint x="210" y="105" as="sourcePoint" />
            <mxPoint x="140" y="140" as="targetPoint" />
            <mxPoint as="offset" />
          </mxGeometry>
        </mxCell>
        <mxCell id="ymalUgSabGPjmfuooHwx-5" value="Structure" style="rounded=1;whiteSpace=wrap;html=1;" parent="XGxz1vyEp1LMj1HzgabG-1" vertex="1">
          <mxGeometry x="194" y="30" width="70" height="30" as="geometry" />
        </mxCell>
        <mxCell id="ymalUgSabGPjmfuooHwx-6" value="Contains" style="edgeStyle=orthogonalEdgeStyle;fontSize=12;html=1;endArrow=ERoneToMany;entryX=0.5;entryY=0;entryDx=0;entryDy=0;exitX=0;exitY=0.5;exitDx=0;exitDy=0;" parent="XGxz1vyEp1LMj1HzgabG-1" source="ymalUgSabGPjmfuooHwx-5" target="XGxz1vyEp1LMj1HzgabG-2" edge="1">
          <mxGeometry x="0.4118" width="100" height="100" relative="1" as="geometry">
            <mxPoint x="130" y="55" as="sourcePoint" />
            <mxPoint x="150.01" y="155.99" as="targetPoint" />
            <mxPoint as="offset" />
          </mxGeometry>
        </mxCell>
        <mxCell id="ymalUgSabGPjmfuooHwx-7" value="Relates to" style="edgeStyle=orthogonalEdgeStyle;fontSize=12;html=1;endArrow=ERoneToMany;exitX=1;exitY=0.5;exitDx=0;exitDy=0;entryX=0.25;entryY=0;entryDx=0;entryDy=0;" parent="XGxz1vyEp1LMj1HzgabG-1" source="ymalUgSabGPjmfuooHwx-5" target="XGxz1vyEp1LMj1HzgabG-36" edge="1">
          <mxGeometry x="0.4118" width="100" height="100" relative="1" as="geometry">
            <mxPoint x="200" y="115" as="sourcePoint" />
            <mxPoint x="175" y="155" as="targetPoint" />
            <mxPoint as="offset" />
          </mxGeometry>
        </mxCell>
        <mxCell id="ymalUgSabGPjmfuooHwx-8" value="Address" style="rounded=1;whiteSpace=wrap;html=1;" parent="XGxz1vyEp1LMj1HzgabG-1" vertex="1">
          <mxGeometry x="194" y="90" width="70" height="30" as="geometry" />
        </mxCell>
        <mxCell id="ymalUgSabGPjmfuooHwx-9" value="" style="fontSize=12;html=1;endArrow=ERmandOne;startArrow=ERmandOne;entryX=0.5;entryY=0;entryDx=0;entryDy=0;exitX=0.5;exitY=1;exitDx=0;exitDy=0;" parent="XGxz1vyEp1LMj1HzgabG-1" source="ymalUgSabGPjmfuooHwx-5" target="ymalUgSabGPjmfuooHwx-8" edge="1">
          <mxGeometry width="100" height="100" relative="1" as="geometry">
            <mxPoint x="270" y="98" as="sourcePoint" />
            <mxPoint x="450" y="30" as="targetPoint" />
          </mxGeometry>
        </mxCell>
        <mxCell id="ymalUgSabGPjmfuooHwx-11" value="has" style="edgeLabel;html=1;align=center;verticalAlign=middle;resizable=0;points=[];" parent="ymalUgSabGPjmfuooHwx-9" vertex="1" connectable="0">
          <mxGeometry x="0.1152" y="2" relative="1" as="geometry">
            <mxPoint y="1" as="offset" />
          </mxGeometry>
        </mxCell>
        <mxCell id="zA_jZInp2WtChcXfdlyO-0" value="Circuit" style="strokeWidth=2;html=1;shape=mxgraph.flowchart.direct_data;whiteSpace=wrap;" parent="XGxz1vyEp1LMj1HzgabG-1" vertex="1">
          <mxGeometry x="425" y="311" width="100" height="19" as="geometry" />
        </mxCell>
        <mxCell id="zA_jZInp2WtChcXfdlyO-1" value="Link" style="shape=link;html=1;width=6;shadow=0;" parent="XGxz1vyEp1LMj1HzgabG-1" edge="1">
          <mxGeometry x="-0.2" width="100" relative="1" as="geometry">
            <mxPoint x="420" y="344.5" as="sourcePoint" />
            <mxPoint x="540" y="345" as="targetPoint" />
            <mxPoint as="offset" />
          </mxGeometry>
        </mxCell>
        <mxCell id="zA_jZInp2WtChcXfdlyO-4" value="Leased Service (DFS)" style="rounded=1;whiteSpace=wrap;html=1;fontSize=9;" parent="XGxz1vyEp1LMj1HzgabG-1" vertex="1">
          <mxGeometry x="550" y="291" width="70" height="30" as="geometry" />
        </mxCell>
        <mxCell id="zA_jZInp2WtChcXfdlyO-5" value="" style="edgeStyle=orthogonalEdgeStyle;fontSize=12;html=1;endArrow=ERmandOne;startArrow=ERmandOne;shadow=0;entryX=0;entryY=0.5;entryDx=0;entryDy=0;" parent="XGxz1vyEp1LMj1HzgabG-1" target="zA_jZInp2WtChcXfdlyO-4" edge="1">
          <mxGeometry width="100" height="100" relative="1" as="geometry">
            <mxPoint x="530" y="340" as="sourcePoint" />
            <mxPoint x="470" y="160" as="targetPoint" />
            <Array as="points">
              <mxPoint x="530" y="306" />
            </Array>
          </mxGeometry>
        </mxCell>
        <mxCell id="zHvFJ3Ey7oR4F0llb_S2-1" value="" style="edgeStyle=orthogonalEdgeStyle;fontSize=12;html=1;endArrow=ERmandOne;startArrow=ERmandOne;shadow=0;entryX=0.5;entryY=1;entryDx=0;entryDy=0;exitX=0.75;exitY=0;exitDx=0;exitDy=0;" parent="XGxz1vyEp1LMj1HzgabG-1" source="XGxz1vyEp1LMj1HzgabG-2" target="ymalUgSabGPjmfuooHwx-8" edge="1">
          <mxGeometry width="100" height="100" relative="1" as="geometry">
            <mxPoint x="370" y="230" as="sourcePoint" />
            <mxPoint x="470" y="130" as="targetPoint" />
          </mxGeometry>
        </mxCell>
      </root>
    </mxGraphModel>
  </diagram>
  <diagram name="GIS" id="vMCU9zWd_nTL8r3yYFLL">
    <mxGraphModel dx="868" dy="482" grid="1" gridSize="10" guides="1" tooltips="1" connect="1" arrows="1" fold="1" page="1" pageScale="1" pageWidth="850" pageHeight="1100" math="0" shadow="0" extFonts="Permanent Marker^https://fonts.googleapis.com/css?family=Permanent+Marker">
      <root>
        <mxCell id="0" />
        <mxCell id="1" parent="0" />
        <mxCell id="v6mGNKlB1x2H7RvGQPah-1" value="Building" style="rounded=1;whiteSpace=wrap;html=1;fillColor=#1ba1e2;strokeColor=#006EAF;fontColor=#ffffff;" parent="1" vertex="1">
          <mxGeometry x="225" y="77" width="70" height="30" as="geometry" />
        </mxCell>
        <mxCell id="v6mGNKlB1x2H7RvGQPah-2" value="Room" style="rounded=1;whiteSpace=wrap;html=1;" parent="1" vertex="1">
          <mxGeometry x="285" y="121" width="70" height="30" as="geometry" />
        </mxCell>
        <mxCell id="v6mGNKlB1x2H7RvGQPah-3" value="" style="edgeStyle=orthogonalEdgeStyle;fontSize=12;html=1;endArrow=ERoneToMany;exitX=0.5;exitY=1;exitDx=0;exitDy=0;entryX=0;entryY=0.5;entryDx=0;entryDy=0;" parent="1" source="v6mGNKlB1x2H7RvGQPah-1" target="v6mGNKlB1x2H7RvGQPah-2" edge="1">
          <mxGeometry width="100" height="100" relative="1" as="geometry">
            <mxPoint x="485" y="357" as="sourcePoint" />
            <mxPoint x="585" y="257" as="targetPoint" />
          </mxGeometry>
        </mxCell>
        <mxCell id="v6mGNKlB1x2H7RvGQPah-4" value="Row" style="rounded=1;whiteSpace=wrap;html=1;" parent="1" vertex="1">
          <mxGeometry x="335" y="166" width="70" height="30" as="geometry" />
        </mxCell>
        <mxCell id="v6mGNKlB1x2H7RvGQPah-5" value="" style="edgeStyle=orthogonalEdgeStyle;fontSize=12;html=1;endArrow=ERoneToMany;exitX=0.386;exitY=1.033;exitDx=0;exitDy=0;entryX=0;entryY=0.5;entryDx=0;entryDy=0;exitPerimeter=0;" parent="1" source="v6mGNKlB1x2H7RvGQPah-2" target="v6mGNKlB1x2H7RvGQPah-4" edge="1">
          <mxGeometry width="100" height="100" relative="1" as="geometry">
            <mxPoint x="260" y="177" as="sourcePoint" />
            <mxPoint x="285" y="206" as="targetPoint" />
          </mxGeometry>
        </mxCell>
        <mxCell id="v6mGNKlB1x2H7RvGQPah-6" value="Rack" style="rounded=1;whiteSpace=wrap;html=1;fillColor=#1ba1e2;strokeColor=#006EAF;fontColor=#ffffff;" parent="1" vertex="1">
          <mxGeometry x="390" y="213" width="70" height="30" as="geometry" />
        </mxCell>
        <mxCell id="v6mGNKlB1x2H7RvGQPah-7" value="" style="edgeStyle=orthogonalEdgeStyle;fontSize=12;html=1;endArrow=ERoneToMany;entryX=0;entryY=0.5;entryDx=0;entryDy=0;" parent="1" source="v6mGNKlB1x2H7RvGQPah-4" target="v6mGNKlB1x2H7RvGQPah-6" edge="1">
          <mxGeometry width="100" height="100" relative="1" as="geometry">
            <mxPoint x="375" y="197" as="sourcePoint" />
            <mxPoint x="345" y="191" as="targetPoint" />
          </mxGeometry>
        </mxCell>
        <mxCell id="v6mGNKlB1x2H7RvGQPah-8" value="Positions" style="rounded=1;whiteSpace=wrap;html=1;" parent="1" vertex="1">
          <mxGeometry x="445" y="262" width="70" height="30" as="geometry" />
        </mxCell>
        <mxCell id="v6mGNKlB1x2H7RvGQPah-9" value="" style="edgeStyle=orthogonalEdgeStyle;fontSize=12;html=1;endArrow=ERoneToMany;entryX=0;entryY=0.5;entryDx=0;entryDy=0;exitX=0.5;exitY=1;exitDx=0;exitDy=0;" parent="1" source="v6mGNKlB1x2H7RvGQPah-6" target="v6mGNKlB1x2H7RvGQPah-8" edge="1">
          <mxGeometry width="100" height="100" relative="1" as="geometry">
            <mxPoint x="380" y="206" as="sourcePoint" />
            <mxPoint x="400" y="238" as="targetPoint" />
          </mxGeometry>
        </mxCell>
        <mxCell id="v6mGNKlB1x2H7RvGQPah-10" value="Shelf" style="rounded=1;whiteSpace=wrap;html=1;fillColor=#1ba1e2;strokeColor=#006EAF;fontColor=#ffffff;" parent="1" vertex="1">
          <mxGeometry x="499" y="307" width="70" height="30" as="geometry" />
        </mxCell>
        <mxCell id="v6mGNKlB1x2H7RvGQPah-11" value="" style="edgeStyle=orthogonalEdgeStyle;fontSize=12;html=1;endArrow=ERoneToMany;exitX=0.414;exitY=1.033;exitDx=0;exitDy=0;exitPerimeter=0;entryX=0;entryY=0.5;entryDx=0;entryDy=0;" parent="1" source="v6mGNKlB1x2H7RvGQPah-8" target="v6mGNKlB1x2H7RvGQPah-10" edge="1">
          <mxGeometry width="100" height="100" relative="1" as="geometry">
            <mxPoint x="435" y="253" as="sourcePoint" />
            <mxPoint x="435" y="357" as="targetPoint" />
          </mxGeometry>
        </mxCell>
        <mxCell id="v6mGNKlB1x2H7RvGQPah-14" value="Card" style="rounded=1;whiteSpace=wrap;html=1;fillColor=#1ba1e2;strokeColor=#006EAF;fontColor=#ffffff;" parent="1" vertex="1">
          <mxGeometry x="558" y="354" width="70" height="30" as="geometry" />
        </mxCell>
        <mxCell id="v6mGNKlB1x2H7RvGQPah-15" value="" style="edgeStyle=orthogonalEdgeStyle;fontSize=12;html=1;endArrow=ERoneToMany;exitX=0.5;exitY=1;exitDx=0;exitDy=0;entryX=0;entryY=0.5;entryDx=0;entryDy=0;" parent="1" source="v6mGNKlB1x2H7RvGQPah-10" target="v6mGNKlB1x2H7RvGQPah-14" edge="1">
          <mxGeometry width="100" height="100" relative="1" as="geometry">
            <mxPoint x="483.98" y="302.99" as="sourcePoint" />
            <mxPoint x="495" y="397" as="targetPoint" />
          </mxGeometry>
        </mxCell>
        <mxCell id="v6mGNKlB1x2H7RvGQPah-16" value="Port" style="rounded=1;whiteSpace=wrap;html=1;fillColor=#1ba1e2;strokeColor=#006EAF;fontColor=#ffffff;" parent="1" vertex="1">
          <mxGeometry x="656" y="401" width="70" height="30" as="geometry" />
        </mxCell>
        <mxCell id="v6mGNKlB1x2H7RvGQPah-17" value="" style="edgeStyle=orthogonalEdgeStyle;fontSize=12;html=1;endArrow=ERoneToMany;entryX=0;entryY=0.5;entryDx=0;entryDy=0;exitX=0.5;exitY=1;exitDx=0;exitDy=0;" parent="1" source="v6mGNKlB1x2H7RvGQPah-14" target="v6mGNKlB1x2H7RvGQPah-16" edge="1">
          <mxGeometry width="100" height="100" relative="1" as="geometry">
            <mxPoint x="595" y="387" as="sourcePoint" />
            <mxPoint x="568" y="379" as="targetPoint" />
          </mxGeometry>
        </mxCell>
        <mxCell id="v6mGNKlB1x2H7RvGQPah-19" style="edgeStyle=elbowEdgeStyle;rounded=0;orthogonalLoop=1;jettySize=auto;elbow=vertical;html=1;entryX=0.25;entryY=0;entryDx=0;entryDy=0;" parent="1" edge="1">
          <mxGeometry relative="1" as="geometry">
            <mxPoint x="592.5" y="262" as="sourcePoint" />
            <mxPoint x="592.5" y="262" as="targetPoint" />
          </mxGeometry>
        </mxCell>
        <mxCell id="v6mGNKlB1x2H7RvGQPah-20" value="Device" style="rounded=1;whiteSpace=wrap;html=1;fillColor=#1ba1e2;strokeColor=#006EAF;fontColor=#ffffff;" parent="1" vertex="1">
          <mxGeometry x="499" y="392" width="70" height="30" as="geometry" />
        </mxCell>
        <mxCell id="v6mGNKlB1x2H7RvGQPah-21" value="" style="edgeStyle=orthogonalEdgeStyle;fontSize=12;html=1;endArrow=ERoneToMany;exitX=0.25;exitY=1;exitDx=0;exitDy=0;entryX=0;entryY=0.25;entryDx=0;entryDy=0;" parent="1" source="v6mGNKlB1x2H7RvGQPah-8" target="v6mGNKlB1x2H7RvGQPah-20" edge="1">
          <mxGeometry width="100" height="100" relative="1" as="geometry">
            <mxPoint x="483.98" y="302.99" as="sourcePoint" />
            <mxPoint x="509" y="332" as="targetPoint" />
          </mxGeometry>
        </mxCell>
        <mxCell id="v6mGNKlB1x2H7RvGQPah-22" value="Port" style="rounded=1;whiteSpace=wrap;html=1;" parent="1" vertex="1">
          <mxGeometry x="558" y="442" width="70" height="30" as="geometry" />
        </mxCell>
        <mxCell id="v6mGNKlB1x2H7RvGQPah-23" value="" style="edgeStyle=orthogonalEdgeStyle;fontSize=12;html=1;endArrow=ERoneToMany;exitX=0.5;exitY=1;exitDx=0;exitDy=0;entryX=0;entryY=0.25;entryDx=0;entryDy=0;" parent="1" source="v6mGNKlB1x2H7RvGQPah-20" target="v6mGNKlB1x2H7RvGQPah-22" edge="1">
          <mxGeometry width="100" height="100" relative="1" as="geometry">
            <mxPoint x="472.5" y="302" as="sourcePoint" />
            <mxPoint x="509" y="409.5" as="targetPoint" />
          </mxGeometry>
        </mxCell>
        <mxCell id="v6mGNKlB1x2H7RvGQPah-25" value="Geopoint" style="rounded=1;whiteSpace=wrap;html=1;" parent="1" vertex="1">
          <mxGeometry x="285" y="22" width="70" height="30" as="geometry" />
        </mxCell>
        <mxCell id="v6mGNKlB1x2H7RvGQPah-26" value="Address" style="rounded=1;whiteSpace=wrap;html=1;" parent="1" vertex="1">
          <mxGeometry x="378" y="46" width="70" height="30" as="geometry" />
        </mxCell>
        <mxCell id="v6mGNKlB1x2H7RvGQPah-27" value="" style="edgeStyle=orthogonalEdgeStyle;fontSize=12;html=1;endArrow=ERmandOne;startArrow=ERmandOne;entryX=0;entryY=0.5;entryDx=0;entryDy=0;exitX=0.5;exitY=0;exitDx=0;exitDy=0;" parent="1" source="v6mGNKlB1x2H7RvGQPah-1" target="v6mGNKlB1x2H7RvGQPah-25" edge="1">
          <mxGeometry width="100" height="100" relative="1" as="geometry">
            <mxPoint x="471" y="172" as="sourcePoint" />
            <mxPoint x="571" y="72" as="targetPoint" />
          </mxGeometry>
        </mxCell>
        <mxCell id="v6mGNKlB1x2H7RvGQPah-28" value="" style="edgeStyle=orthogonalEdgeStyle;fontSize=12;html=1;endArrow=ERmandOne;startArrow=ERmandOne;entryX=0;entryY=0.5;entryDx=0;entryDy=0;exitX=1;exitY=0.25;exitDx=0;exitDy=0;" parent="1" source="v6mGNKlB1x2H7RvGQPah-1" target="v6mGNKlB1x2H7RvGQPah-26" edge="1">
          <mxGeometry width="100" height="100" relative="1" as="geometry">
            <mxPoint x="301" y="87" as="sourcePoint" />
            <mxPoint x="295" y="47" as="targetPoint" />
          </mxGeometry>
        </mxCell>
        <mxCell id="v6mGNKlB1x2H7RvGQPah-29" value="Station" style="rounded=1;whiteSpace=wrap;html=1;fillColor=#1ba1e2;strokeColor=#006EAF;fontColor=#ffffff;" parent="1" vertex="1">
          <mxGeometry x="141" y="121" width="70" height="30" as="geometry" />
        </mxCell>
        <mxCell id="v6mGNKlB1x2H7RvGQPah-30" value="" style="edgeStyle=orthogonalEdgeStyle;fontSize=12;html=1;endArrow=ERoneToMany;exitX=0;exitY=0.5;exitDx=0;exitDy=0;entryX=0.5;entryY=0;entryDx=0;entryDy=0;" parent="1" source="v6mGNKlB1x2H7RvGQPah-1" target="v6mGNKlB1x2H7RvGQPah-29" edge="1">
          <mxGeometry width="100" height="100" relative="1" as="geometry">
            <mxPoint x="270" y="117" as="sourcePoint" />
            <mxPoint x="295" y="146" as="targetPoint" />
          </mxGeometry>
        </mxCell>
        <mxCell id="v6mGNKlB1x2H7RvGQPah-31" value="Town" style="rounded=1;whiteSpace=wrap;html=1;" parent="1" vertex="1">
          <mxGeometry x="499" y="46" width="70" height="30" as="geometry" />
        </mxCell>
        <mxCell id="v6mGNKlB1x2H7RvGQPah-32" value="" style="edgeStyle=orthogonalEdgeStyle;fontSize=12;html=1;endArrow=ERoneToMany;exitX=0;exitY=0.5;exitDx=0;exitDy=0;" parent="1" source="v6mGNKlB1x2H7RvGQPah-31" target="v6mGNKlB1x2H7RvGQPah-26" edge="1">
          <mxGeometry width="100" height="100" relative="1" as="geometry">
            <mxPoint x="491" y="62" as="sourcePoint" />
            <mxPoint x="451" y="62" as="targetPoint" />
          </mxGeometry>
        </mxCell>
        <mxCell id="v6mGNKlB1x2H7RvGQPah-34" value="Feature" style="rounded=1;whiteSpace=wrap;html=1;fillColor=#1ba1e2;strokeColor=#006EAF;fontColor=#ffffff;" parent="1" vertex="1">
          <mxGeometry x="670" y="52" width="70" height="30" as="geometry" />
        </mxCell>
        <mxCell id="v6mGNKlB1x2H7RvGQPah-37" value="Port" style="rounded=1;whiteSpace=wrap;html=1;" parent="1" vertex="1">
          <mxGeometry x="70" y="162" width="70" height="30" as="geometry" />
        </mxCell>
        <mxCell id="v6mGNKlB1x2H7RvGQPah-38" value="" style="edgeStyle=orthogonalEdgeStyle;fontSize=12;html=1;endArrow=ERoneToMany;" parent="1" source="v6mGNKlB1x2H7RvGQPah-29" target="v6mGNKlB1x2H7RvGQPah-37" edge="1">
          <mxGeometry width="100" height="100" relative="1" as="geometry">
            <mxPoint x="235" y="102" as="sourcePoint" />
            <mxPoint x="186" y="131" as="targetPoint" />
          </mxGeometry>
        </mxCell>
        <mxCell id="v6mGNKlB1x2H7RvGQPah-39" style="edgeStyle=orthogonalEdgeStyle;rounded=0;orthogonalLoop=1;jettySize=auto;html=1;exitX=0.5;exitY=1;exitDx=0;exitDy=0;exitPerimeter=0;shadow=0;" parent="1" source="v6mGNKlB1x2H7RvGQPah-40" edge="1">
          <mxGeometry relative="1" as="geometry">
            <mxPoint x="774" y="410" as="targetPoint" />
          </mxGeometry>
        </mxCell>
        <mxCell id="v6mGNKlB1x2H7RvGQPah-40" value="Circuit" style="strokeWidth=2;html=1;shape=mxgraph.flowchart.direct_data;whiteSpace=wrap;" parent="1" vertex="1">
          <mxGeometry x="721" y="371" width="100" height="10" as="geometry" />
        </mxCell>
        <mxCell id="v6mGNKlB1x2H7RvGQPah-41" value="Link" style="shape=link;html=1;width=6;shadow=0;" parent="1" edge="1">
          <mxGeometry x="-0.2" width="100" relative="1" as="geometry">
            <mxPoint x="731" y="412.5" as="sourcePoint" />
            <mxPoint x="831" y="412.5" as="targetPoint" />
            <mxPoint as="offset" />
          </mxGeometry>
        </mxCell>
        <mxCell id="v6mGNKlB1x2H7RvGQPah-42" value="" style="edgeStyle=orthogonalEdgeStyle;fontSize=12;html=1;endArrow=ERmandOne;startArrow=ERmandOne;shadow=0;" parent="1" edge="1">
          <mxGeometry width="100" height="100" relative="1" as="geometry">
            <mxPoint x="821" y="410" as="sourcePoint" />
            <mxPoint x="844" y="354" as="targetPoint" />
            <Array as="points">
              <mxPoint x="821" y="410" />
              <mxPoint x="821" y="354" />
            </Array>
          </mxGeometry>
        </mxCell>
        <mxCell id="v6mGNKlB1x2H7RvGQPah-43" value="DFS/BCS" style="swimlane;childLayout=stackLayout;horizontal=1;startSize=27;horizontalStack=0;rounded=1;fontSize=14;fontStyle=0;strokeWidth=2;resizeParent=0;resizeLast=1;shadow=0;dashed=0;align=center;" parent="1" vertex="1">
          <mxGeometry x="844" y="317" width="120" height="67" as="geometry" />
        </mxCell>
        <mxCell id="v6mGNKlB1x2H7RvGQPah-44" value="+DFC1/BCC1&#xa;+DFC2/BCC2&#xa;" style="align=left;strokeColor=none;fillColor=none;spacingLeft=4;fontSize=12;verticalAlign=top;resizable=0;rotatable=0;part=1;" parent="v6mGNKlB1x2H7RvGQPah-43" vertex="1">
          <mxGeometry y="27" width="120" height="40" as="geometry" />
        </mxCell>
        <mxCell id="GP923mj322ImcZtyyGvx-1" value="NIP" style="rounded=1;whiteSpace=wrap;html=1;fillColor=#1ba1e2;strokeColor=#006EAF;fontColor=#ffffff;" parent="1" vertex="1">
          <mxGeometry x="721" y="287" width="70" height="30" as="geometry" />
        </mxCell>
        <mxCell id="GP923mj322ImcZtyyGvx-2" value="" style="edgeStyle=orthogonalEdgeStyle;fontSize=12;html=1;endArrow=ERmandOne;startArrow=ERmandOne;entryX=0;entryY=0.5;entryDx=0;entryDy=0;" parent="1" source="v6mGNKlB1x2H7RvGQPah-16" target="GP923mj322ImcZtyyGvx-1" edge="1">
          <mxGeometry width="100" height="100" relative="1" as="geometry">
            <mxPoint x="450" y="290" as="sourcePoint" />
            <mxPoint x="550" y="190" as="targetPoint" />
          </mxGeometry>
        </mxCell>
        <mxCell id="2zXopBkQtyXAcL6vRaBY-2" value="" style="edgeStyle=orthogonalEdgeStyle;rounded=0;orthogonalLoop=1;jettySize=auto;html=1;" parent="1" source="2zXopBkQtyXAcL6vRaBY-1" target="GP923mj322ImcZtyyGvx-1" edge="1">
          <mxGeometry relative="1" as="geometry" />
        </mxCell>
        <UserObject label="Contains VAR location as an attribute" placeholders="1" name="Variable" id="2zXopBkQtyXAcL6vRaBY-1">
          <mxCell style="text;html=1;strokeColor=none;fillColor=none;align=center;verticalAlign=middle;whiteSpace=wrap;overflow=hidden;" parent="1" vertex="1">
            <mxGeometry x="691" y="197" width="130" height="61" as="geometry" />
          </mxCell>
        </UserObject>
      </root>
    </mxGraphModel>
  </diagram>
  <diagram id="5-dtDERGcOTZV4uFQZAj" name="ZSMART">
    <mxGraphModel dx="868" dy="433" grid="1" gridSize="10" guides="1" tooltips="1" connect="1" arrows="1" fold="1" page="1" pageScale="1" pageWidth="850" pageHeight="1100" math="0" shadow="0">
      <root>
        <mxCell id="ciD-ue80AC8oDXjhcivF-0" />
        <mxCell id="ciD-ue80AC8oDXjhcivF-1" parent="ciD-ue80AC8oDXjhcivF-0" />
        <mxCell id="M714d1ZekWHJ7bt0Aurv-0" value="Site" style="rounded=1;whiteSpace=wrap;html=1;fillColor=#60a917;strokeColor=#2D7600;fontColor=#ffffff;" parent="ciD-ue80AC8oDXjhcivF-1" vertex="1">
          <mxGeometry x="130" y="145" width="70" height="30" as="geometry" />
        </mxCell>
        <mxCell id="M714d1ZekWHJ7bt0Aurv-1" value="Node" style="rounded=1;whiteSpace=wrap;html=1;fillColor=#1ba1e2;strokeColor=#006EAF;fontColor=#ffffff;" parent="ciD-ue80AC8oDXjhcivF-1" vertex="1">
          <mxGeometry x="190" y="189" width="70" height="30" as="geometry" />
        </mxCell>
        <mxCell id="M714d1ZekWHJ7bt0Aurv-2" value="" style="edgeStyle=orthogonalEdgeStyle;fontSize=12;html=1;endArrow=ERoneToMany;exitX=0.5;exitY=1;exitDx=0;exitDy=0;entryX=0;entryY=0.5;entryDx=0;entryDy=0;" parent="ciD-ue80AC8oDXjhcivF-1" source="M714d1ZekWHJ7bt0Aurv-0" target="M714d1ZekWHJ7bt0Aurv-1" edge="1">
          <mxGeometry width="100" height="100" relative="1" as="geometry">
            <mxPoint x="390" y="425" as="sourcePoint" />
            <mxPoint x="490" y="325" as="targetPoint" />
          </mxGeometry>
        </mxCell>
        <mxCell id="M714d1ZekWHJ7bt0Aurv-3" value="Shelf" style="rounded=1;whiteSpace=wrap;html=1;" parent="ciD-ue80AC8oDXjhcivF-1" vertex="1">
          <mxGeometry x="240" y="234" width="70" height="30" as="geometry" />
        </mxCell>
        <mxCell id="M714d1ZekWHJ7bt0Aurv-4" value="" style="edgeStyle=orthogonalEdgeStyle;fontSize=12;html=1;endArrow=ERoneToMany;exitX=0.386;exitY=1.033;exitDx=0;exitDy=0;entryX=0;entryY=0.5;entryDx=0;entryDy=0;exitPerimeter=0;" parent="ciD-ue80AC8oDXjhcivF-1" source="M714d1ZekWHJ7bt0Aurv-1" target="M714d1ZekWHJ7bt0Aurv-3" edge="1">
          <mxGeometry width="100" height="100" relative="1" as="geometry">
            <mxPoint x="165" y="245" as="sourcePoint" />
            <mxPoint x="190" y="274" as="targetPoint" />
          </mxGeometry>
        </mxCell>
        <mxCell id="M714d1ZekWHJ7bt0Aurv-5" value="Card" style="rounded=1;whiteSpace=wrap;html=1;" parent="ciD-ue80AC8oDXjhcivF-1" vertex="1">
          <mxGeometry x="355" y="326" width="70" height="30" as="geometry" />
        </mxCell>
        <mxCell id="M714d1ZekWHJ7bt0Aurv-7" value="Port" style="rounded=1;whiteSpace=wrap;html=1;" parent="ciD-ue80AC8oDXjhcivF-1" vertex="1">
          <mxGeometry x="410" y="375" width="70" height="30" as="geometry" />
        </mxCell>
        <mxCell id="M714d1ZekWHJ7bt0Aurv-8" value="" style="edgeStyle=orthogonalEdgeStyle;fontSize=12;html=1;endArrow=ERoneToMany;entryX=0;entryY=0.5;entryDx=0;entryDy=0;exitX=0.5;exitY=1;exitDx=0;exitDy=0;" parent="ciD-ue80AC8oDXjhcivF-1" source="M714d1ZekWHJ7bt0Aurv-5" target="M714d1ZekWHJ7bt0Aurv-7" edge="1">
          <mxGeometry width="100" height="100" relative="1" as="geometry">
            <mxPoint x="345" y="319" as="sourcePoint" />
            <mxPoint x="365" y="351" as="targetPoint" />
          </mxGeometry>
        </mxCell>
        <mxCell id="M714d1ZekWHJ7bt0Aurv-9" style="edgeStyle=elbowEdgeStyle;rounded=0;orthogonalLoop=1;jettySize=auto;elbow=vertical;html=1;entryX=0.25;entryY=0;entryDx=0;entryDy=0;" parent="ciD-ue80AC8oDXjhcivF-1" edge="1">
          <mxGeometry relative="1" as="geometry">
            <mxPoint x="557.5" y="375" as="sourcePoint" />
            <mxPoint x="557.5" y="375" as="targetPoint" />
          </mxGeometry>
        </mxCell>
        <mxCell id="M714d1ZekWHJ7bt0Aurv-10" value="Location Objects" style="rounded=1;whiteSpace=wrap;html=1;fillColor=#60a917;strokeColor=#2D7600;fontColor=#ffffff;" parent="ciD-ue80AC8oDXjhcivF-1" vertex="1">
          <mxGeometry x="500" y="31" width="70" height="30" as="geometry" />
        </mxCell>
        <mxCell id="M714d1ZekWHJ7bt0Aurv-11" value="Node Objects" style="rounded=1;whiteSpace=wrap;html=1;fillColor=#1ba1e2;strokeColor=#006EAF;fontColor=#ffffff;" parent="ciD-ue80AC8oDXjhcivF-1" vertex="1">
          <mxGeometry x="500" y="90" width="70" height="30" as="geometry" />
        </mxCell>
        <mxCell id="M714d1ZekWHJ7bt0Aurv-16" value="Port" style="rounded=1;whiteSpace=wrap;html=1;" parent="ciD-ue80AC8oDXjhcivF-1" vertex="1">
          <mxGeometry x="295" y="421" width="70" height="30" as="geometry" />
        </mxCell>
        <mxCell id="M714d1ZekWHJ7bt0Aurv-19" value="" style="edgeStyle=orthogonalEdgeStyle;rounded=0;orthogonalLoop=1;jettySize=auto;html=1;entryX=1;entryY=0.5;entryDx=0;entryDy=0;" parent="ciD-ue80AC8oDXjhcivF-1" source="M714d1ZekWHJ7bt0Aurv-21" target="M714d1ZekWHJ7bt0Aurv-3" edge="1">
          <mxGeometry relative="1" as="geometry" />
        </mxCell>
        <UserObject label="VAR location is stored in an attribute of Slotshelf" placeholders="1" name="Variable" id="M714d1ZekWHJ7bt0Aurv-21">
          <mxCell style="text;html=1;strokeColor=none;fillColor=none;align=center;verticalAlign=middle;whiteSpace=wrap;overflow=hidden;" parent="ciD-ue80AC8oDXjhcivF-1" vertex="1">
            <mxGeometry x="386" y="219" width="130" height="61" as="geometry" />
          </mxCell>
        </UserObject>
        <mxCell id="M714d1ZekWHJ7bt0Aurv-22" value="" style="edgeStyle=orthogonalEdgeStyle;fontSize=12;html=1;endArrow=ERoneToMany;exitX=0.25;exitY=1;exitDx=0;exitDy=0;entryX=0;entryY=0.5;entryDx=0;entryDy=0;" parent="ciD-ue80AC8oDXjhcivF-1" source="M714d1ZekWHJ7bt0Aurv-1" target="M714d1ZekWHJ7bt0Aurv-16" edge="1">
          <mxGeometry width="100" height="100" relative="1" as="geometry">
            <mxPoint x="175" y="185" as="sourcePoint" />
            <mxPoint x="200" y="214" as="targetPoint" />
          </mxGeometry>
        </mxCell>
        <mxCell id="M714d1ZekWHJ7bt0Aurv-30" value="City" style="rounded=1;whiteSpace=wrap;html=1;arcSize=37;" parent="ciD-ue80AC8oDXjhcivF-1" vertex="1">
          <mxGeometry x="70" y="90" width="70" height="30" as="geometry" />
        </mxCell>
        <mxCell id="M714d1ZekWHJ7bt0Aurv-33" value="Circuit" style="strokeWidth=2;html=1;shape=mxgraph.flowchart.direct_data;whiteSpace=wrap;" parent="ciD-ue80AC8oDXjhcivF-1" vertex="1">
          <mxGeometry x="485" y="356" width="100" height="19" as="geometry" />
        </mxCell>
        <mxCell id="M714d1ZekWHJ7bt0Aurv-34" value="Link" style="shape=link;html=1;width=6;shadow=0;" parent="ciD-ue80AC8oDXjhcivF-1" edge="1">
          <mxGeometry x="-0.2" width="100" relative="1" as="geometry">
            <mxPoint x="480" y="389.5" as="sourcePoint" />
            <mxPoint x="600" y="390" as="targetPoint" />
            <mxPoint as="offset" />
          </mxGeometry>
        </mxCell>
        <mxCell id="M714d1ZekWHJ7bt0Aurv-35" value="Leased Service (DFS)" style="rounded=1;whiteSpace=wrap;html=1;fontSize=9;" parent="ciD-ue80AC8oDXjhcivF-1" vertex="1">
          <mxGeometry x="610" y="336" width="70" height="30" as="geometry" />
        </mxCell>
        <mxCell id="M714d1ZekWHJ7bt0Aurv-36" value="" style="edgeStyle=orthogonalEdgeStyle;fontSize=12;html=1;endArrow=ERmandOne;startArrow=ERmandOne;shadow=0;entryX=0;entryY=0.5;entryDx=0;entryDy=0;" parent="ciD-ue80AC8oDXjhcivF-1" target="M714d1ZekWHJ7bt0Aurv-35" edge="1">
          <mxGeometry width="100" height="100" relative="1" as="geometry">
            <mxPoint x="590" y="385" as="sourcePoint" />
            <mxPoint x="530" y="205" as="targetPoint" />
            <Array as="points">
              <mxPoint x="590" y="351" />
            </Array>
          </mxGeometry>
        </mxCell>
        <mxCell id="ZKJHQBqDtFlH0we-LcQY-1" value="" style="edgeStyle=orthogonalEdgeStyle;fontSize=12;html=1;endArrow=ERoneToMany;exitX=0.5;exitY=1;exitDx=0;exitDy=0;entryX=0;entryY=0.5;entryDx=0;entryDy=0;" parent="ciD-ue80AC8oDXjhcivF-1" source="M714d1ZekWHJ7bt0Aurv-30" target="M714d1ZekWHJ7bt0Aurv-0" edge="1">
          <mxGeometry width="100" height="100" relative="1" as="geometry">
            <mxPoint x="175" y="185" as="sourcePoint" />
            <mxPoint x="200" y="214" as="targetPoint" />
          </mxGeometry>
        </mxCell>
        <mxCell id="ZKJHQBqDtFlH0we-LcQY-2" value="Country" style="rounded=1;whiteSpace=wrap;html=1;arcSize=37;" parent="ciD-ue80AC8oDXjhcivF-1" vertex="1">
          <mxGeometry x="20" y="40" width="70" height="30" as="geometry" />
        </mxCell>
        <mxCell id="ZKJHQBqDtFlH0we-LcQY-3" value="" style="edgeStyle=orthogonalEdgeStyle;fontSize=12;html=1;endArrow=ERoneToMany;exitX=0.5;exitY=1;exitDx=0;exitDy=0;entryX=0;entryY=0.5;entryDx=0;entryDy=0;" parent="ciD-ue80AC8oDXjhcivF-1" source="ZKJHQBqDtFlH0we-LcQY-2" target="M714d1ZekWHJ7bt0Aurv-30" edge="1">
          <mxGeometry width="100" height="100" relative="1" as="geometry">
            <mxPoint x="115" y="130" as="sourcePoint" />
            <mxPoint x="140" y="170" as="targetPoint" />
          </mxGeometry>
        </mxCell>
        <mxCell id="ZKJHQBqDtFlH0we-LcQY-4" value="Slot" style="rounded=1;whiteSpace=wrap;html=1;" parent="ciD-ue80AC8oDXjhcivF-1" vertex="1">
          <mxGeometry x="300" y="280" width="70" height="30" as="geometry" />
        </mxCell>
        <mxCell id="ZKJHQBqDtFlH0we-LcQY-5" value="" style="edgeStyle=orthogonalEdgeStyle;fontSize=12;html=1;endArrow=ERoneToMany;entryX=0;entryY=0.5;entryDx=0;entryDy=0;exitX=0.5;exitY=1;exitDx=0;exitDy=0;" parent="ciD-ue80AC8oDXjhcivF-1" source="M714d1ZekWHJ7bt0Aurv-3" target="ZKJHQBqDtFlH0we-LcQY-4" edge="1">
          <mxGeometry width="100" height="100" relative="1" as="geometry">
            <mxPoint x="377" y="366" as="sourcePoint" />
            <mxPoint x="397" y="400" as="targetPoint" />
          </mxGeometry>
        </mxCell>
        <mxCell id="ZKJHQBqDtFlH0we-LcQY-6" value="" style="edgeStyle=orthogonalEdgeStyle;fontSize=12;html=1;endArrow=ERoneToMany;entryX=0;entryY=0.5;entryDx=0;entryDy=0;exitX=0.5;exitY=1;exitDx=0;exitDy=0;" parent="ciD-ue80AC8oDXjhcivF-1" source="ZKJHQBqDtFlH0we-LcQY-4" target="M714d1ZekWHJ7bt0Aurv-5" edge="1">
          <mxGeometry width="100" height="100" relative="1" as="geometry">
            <mxPoint x="400" y="366" as="sourcePoint" />
            <mxPoint x="420" y="400" as="targetPoint" />
          </mxGeometry>
        </mxCell>
      </root>
    </mxGraphModel>
  </diagram>
  <diagram id="Sch2WEDbCbIV9bOPQS0C" name="Rack">
    <mxGraphModel dx="1718" dy="433" grid="1" gridSize="10" guides="1" tooltips="1" connect="1" arrows="1" fold="1" page="1" pageScale="1" pageWidth="850" pageHeight="1100" math="0" shadow="0">
      <root>
        <mxCell id="NAiqHazn5sWhVvEWbsj6-0" />
        <mxCell id="NAiqHazn5sWhVvEWbsj6-1" parent="NAiqHazn5sWhVvEWbsj6-0" />
        <mxCell id="vw2CRLOBcBUeN0YFQBN8-7" style="edgeStyle=orthogonalEdgeStyle;rounded=0;orthogonalLoop=1;jettySize=auto;html=1;entryX=0;entryY=0.75;entryDx=0;entryDy=0;strokeColor=#000000;fontColor=#000000;exitX=1;exitY=0.75;exitDx=0;exitDy=0;shadow=0;strokeWidth=3;endSize=11;startSize=11;sketch=0;" edge="1" parent="NAiqHazn5sWhVvEWbsj6-1">
          <mxGeometry relative="1" as="geometry">
            <mxPoint x="-520" y="160" as="sourcePoint" />
            <mxPoint x="-270" y="160" as="targetPoint" />
          </mxGeometry>
        </mxCell>
        <mxCell id="DjU6518S9XPNlImMvv2Y-4" value="&lt;font color=&quot;#ff0000&quot;&gt;&lt;b&gt;Response for &lt;br&gt;Add/Delete/Move Shelfs&lt;br&gt;&lt;/b&gt;&lt;/font&gt;&lt;b style=&quot;color: rgb(255 , 0 , 0)&quot;&gt;for passive devices&lt;/b&gt;&lt;font color=&quot;#ff0000&quot;&gt;&lt;b&gt;&lt;br&gt;&lt;/b&gt;&lt;/font&gt;" style="edgeLabel;html=1;align=center;verticalAlign=middle;resizable=0;points=[];fontColor=#000000;" vertex="1" connectable="0" parent="vw2CRLOBcBUeN0YFQBN8-7">
          <mxGeometry x="0.1529" relative="1" as="geometry">
            <mxPoint x="-21" y="20" as="offset" />
          </mxGeometry>
        </mxCell>
        <mxCell id="vw2CRLOBcBUeN0YFQBN8-8" style="edgeStyle=orthogonalEdgeStyle;rounded=0;orthogonalLoop=1;jettySize=auto;html=1;entryX=0.25;entryY=0;entryDx=0;entryDy=0;fontColor=#000000;exitX=0.75;exitY=0;exitDx=0;exitDy=0;jumpSize=9;jumpStyle=arc;startSize=11;endSize=11;shadow=0;sketch=0;strokeWidth=3;" edge="1" parent="NAiqHazn5sWhVvEWbsj6-1" source="vw2CRLOBcBUeN0YFQBN8-1" target="vw2CRLOBcBUeN0YFQBN8-2">
          <mxGeometry relative="1" as="geometry">
            <Array as="points">
              <mxPoint x="-550" y="50" />
              <mxPoint x="-240" y="50" />
            </Array>
          </mxGeometry>
        </mxCell>
        <mxCell id="DjU6518S9XPNlImMvv2Y-5" value="&lt;font color=&quot;#ff0000&quot;&gt;&lt;b&gt;&amp;nbsp;Sync new racks or&lt;br&gt;delete racks &lt;br&gt;(Batch interface)&amp;nbsp;&lt;/b&gt;&lt;/font&gt;" style="edgeLabel;html=1;align=center;verticalAlign=middle;resizable=0;points=[];fontColor=#000000;" vertex="1" connectable="0" parent="vw2CRLOBcBUeN0YFQBN8-8">
          <mxGeometry x="-0.2848" y="1" relative="1" as="geometry">
            <mxPoint x="55" y="-29" as="offset" />
          </mxGeometry>
        </mxCell>
        <mxCell id="DjU6518S9XPNlImMvv2Y-2" value="&lt;font color=&quot;#ff0000&quot;&gt;&lt;b&gt;User manually store &lt;br&gt;Rack-Rackshelf &lt;br&gt;in VAR Location&lt;br&gt;in node/shelf&lt;br&gt;&lt;/b&gt;&lt;/font&gt;" style="edgeStyle=orthogonalEdgeStyle;rounded=0;orthogonalLoop=1;jettySize=auto;html=1;strokeColor=#000000;fontColor=#000000;entryX=0.25;entryY=0;entryDx=0;entryDy=0;exitX=0.25;exitY=1;exitDx=0;exitDy=0;dashed=1;shadow=0;strokeWidth=3;endSize=11;startSize=11;sketch=0;" edge="1" parent="NAiqHazn5sWhVvEWbsj6-1" source="vw2CRLOBcBUeN0YFQBN8-1" target="vw2CRLOBcBUeN0YFQBN8-3">
          <mxGeometry x="-0.0667" y="-70" relative="1" as="geometry">
            <mxPoint x="-620" y="180" as="sourcePoint" />
            <mxPoint as="offset" />
          </mxGeometry>
        </mxCell>
        <mxCell id="vw2CRLOBcBUeN0YFQBN8-1" value="NIM-C4" style="rounded=1;whiteSpace=wrap;html=1;strokeColor=#000066;fillColor=#B3B3B3;gradientColor=#999999;fontColor=#000000;" vertex="1" parent="NAiqHazn5sWhVvEWbsj6-1">
          <mxGeometry x="-640" y="110" width="120" height="60" as="geometry" />
        </mxCell>
        <mxCell id="vw2CRLOBcBUeN0YFQBN8-6" value="&lt;font color=&quot;#ff0000&quot;&gt;&lt;b&gt;Add/Delete/Move shelfs&lt;br&gt;for passive devices&lt;br&gt;&lt;/b&gt;&lt;/font&gt;" style="edgeStyle=orthogonalEdgeStyle;rounded=0;orthogonalLoop=1;jettySize=auto;html=1;entryX=1;entryY=0.25;entryDx=0;entryDy=0;strokeColor=#000000;fontColor=#000000;exitX=0;exitY=0.25;exitDx=0;exitDy=0;shadow=0;strokeWidth=3;endSize=11;startSize=11;sketch=0;" edge="1" parent="NAiqHazn5sWhVvEWbsj6-1">
          <mxGeometry x="-0.04" y="-29" relative="1" as="geometry">
            <mxPoint x="-270" y="119" as="sourcePoint" />
            <mxPoint x="-520" y="119" as="targetPoint" />
            <mxPoint as="offset" />
          </mxGeometry>
        </mxCell>
        <mxCell id="vw2CRLOBcBUeN0YFQBN8-9" style="edgeStyle=orthogonalEdgeStyle;rounded=0;orthogonalLoop=1;jettySize=auto;html=1;entryX=0.75;entryY=1;entryDx=0;entryDy=0;strokeColor=#000000;fontColor=#000000;exitX=0.25;exitY=1;exitDx=0;exitDy=0;shadow=0;strokeWidth=3;endSize=11;startSize=11;sketch=0;startArrow=block;startFill=1;" edge="1" parent="NAiqHazn5sWhVvEWbsj6-1" source="vw2CRLOBcBUeN0YFQBN8-2" target="vw2CRLOBcBUeN0YFQBN8-1">
          <mxGeometry relative="1" as="geometry">
            <Array as="points">
              <mxPoint x="-240" y="230" />
              <mxPoint x="-550" y="230" />
            </Array>
          </mxGeometry>
        </mxCell>
        <mxCell id="DjU6518S9XPNlImMvv2Y-12" value="&lt;b&gt;Bulk Deletion of Assets/Racks&lt;br&gt;(Batch interface - ORION)&lt;br&gt;&lt;/b&gt;" style="edgeLabel;html=1;align=center;verticalAlign=middle;resizable=0;points=[];fontColor=#FF0000;" vertex="1" connectable="0" parent="vw2CRLOBcBUeN0YFQBN8-9">
          <mxGeometry x="-0.1116" y="2" relative="1" as="geometry">
            <mxPoint x="-26" y="18" as="offset" />
          </mxGeometry>
        </mxCell>
        <mxCell id="vw2CRLOBcBUeN0YFQBN8-2" value="GEOS" style="rounded=1;whiteSpace=wrap;html=1;strokeColor=#000066;fillColor=#B3B3B3;gradientColor=#999999;fontColor=#000000;" vertex="1" parent="NAiqHazn5sWhVvEWbsj6-1">
          <mxGeometry x="-270" y="110" width="120" height="60" as="geometry" />
        </mxCell>
        <mxCell id="vw2CRLOBcBUeN0YFQBN8-3" value="NIM-OSS" style="rounded=1;whiteSpace=wrap;html=1;strokeColor=#000066;fillColor=#B3B3B3;gradientColor=#999999;fontColor=#000000;" vertex="1" parent="NAiqHazn5sWhVvEWbsj6-1">
          <mxGeometry x="-640" y="323" width="120" height="60" as="geometry" />
        </mxCell>
        <mxCell id="vw2CRLOBcBUeN0YFQBN8-4" value="ZSMART" style="rounded=1;whiteSpace=wrap;html=1;strokeColor=#000066;fillColor=#B3B3B3;gradientColor=#999999;fontColor=#000000;" vertex="1" parent="NAiqHazn5sWhVvEWbsj6-1">
          <mxGeometry x="-270" y="320" width="120" height="60" as="geometry" />
        </mxCell>
        <mxCell id="DjU6518S9XPNlImMvv2Y-3" value="&lt;b style=&quot;color: rgb(255 , 0 , 0) ; font-family: &amp;#34;helvetica&amp;#34; ; font-size: 11px ; font-style: normal ; letter-spacing: normal ; text-align: center ; text-indent: 0px ; text-transform: none ; word-spacing: 0px ; background-color: rgb(255 , 255 , 255)&quot;&gt;User manually store&lt;span&gt;&amp;nbsp;&lt;/span&gt;&lt;br&gt;Rack-Rackshelf&lt;span&gt;&amp;nbsp;&lt;/span&gt;&lt;br&gt;in VAR Location on Chassis(Shelf)&lt;/b&gt;" style="edgeStyle=orthogonalEdgeStyle;rounded=0;orthogonalLoop=1;jettySize=auto;html=1;strokeColor=#000000;fontColor=#000000;entryX=0.5;entryY=0;entryDx=0;entryDy=0;shadow=0;strokeWidth=3;endSize=11;startSize=11;sketch=0;dashed=1;" edge="1" parent="NAiqHazn5sWhVvEWbsj6-1" source="vw2CRLOBcBUeN0YFQBN8-1" target="vw2CRLOBcBUeN0YFQBN8-4">
          <mxGeometry x="0.1673" y="-24" relative="1" as="geometry">
            <mxPoint x="-520" y="180" as="sourcePoint" />
            <mxPoint x="-520" y="250" as="targetPoint" />
            <Array as="points">
              <mxPoint x="-580" y="290" />
              <mxPoint x="-210" y="290" />
            </Array>
            <mxPoint as="offset" />
          </mxGeometry>
        </mxCell>
        <mxCell id="DjU6518S9XPNlImMvv2Y-11" value="&lt;b&gt;Real-time synchronous &lt;br&gt;SOAP interface&lt;/b&gt;" style="text;html=1;strokeColor=none;fillColor=none;align=center;verticalAlign=middle;whiteSpace=wrap;rounded=0;fontColor=#FF0000;" vertex="1" parent="NAiqHazn5sWhVvEWbsj6-1">
          <mxGeometry x="-487" y="130" width="180" height="20" as="geometry" />
        </mxCell>
      </root>
    </mxGraphModel>
  </diagram>
</mxfile>
